<svg xmlns="http://www.w3.org/2000/svg" viewBox="0 0 200 200">
  <path fill="#000" d="M100 170c-8 0-15-3-20-8-5-5-8-12-8-20 0-6 2-12 5-17 3-5 8-9 14-11 3-1 5-3 6-6 1-3 0-6-2-9-2-3-6-5-10-6-3-1-5-4-5-8 0-4 3-7 7-8 4-1 9-1 13-1 4 0 9 0 13 1 4 1 7 4 7 8 0 4-2 7-5 8-4 1-8 3-10 6-2 3-3 6-2 9 1 3 3 5 6 6 6 2 11 6 14 11 3 5 5 11 5 17 0 8-3 15-8 20-5 5-12 8-20 8z"/>
  <path fill="#000" d="M100 32c-15 0-18-8-18-18s8-18 18-18 18 8 18 18-3 18-18 18z"/>
  <path fill="#000" d="M100 32l-40 28 80 0z"/>
  <path fill="#000" d="M60 60l-15-15-5 20 20-5z"/>
</svg>
