<svg xmlns="http://www.w3.org/2000/svg" viewBox="0 0 200 200">
  <path fill="#000" d="M100 180c-30 0-55-10-73-28-8-8-14-18-18-29-3-9-4-18-2-27 2-11 7-21 15-29 8-8 18-14 30-17 6-1 11-3 14-8 3-4 4-10 2-15-2-5-6-9-11-12-4-3-6-7-5-11 1-5 5-8 10-9 9-2 18-2 27-2 9 0 18 0 27 2 5 1 9 4 10 9 1 4-1 8-5 11-5 3-9 7-11 12-2 5-1 11 2 15 3 5 8 7 14 8 12 3 22 9 30 17 8 8 13 18 15 29 2 9 1 18-2 27-4 11-10 21-18 29-18 18-43 28-73 28z"/>
  <path fill="#000" d="M85 38c-4 0-8-3-10-8-2-5-1-11 2-15 3-4 8-6 13-5 15 3 30 3 45 0 5-1 10 1 13 5 3 4 4 10 2 15-2 5-6 8-10 8z"/>
</svg>
